<mxfile host="65bd71144e">
    <diagram id="XEX8GdqOAOKDl8bTp3bf" name="Page-1">
        <mxGraphModel dx="1431" dy="286" grid="1" gridSize="10" guides="1" tooltips="1" connect="1" arrows="1" fold="1" page="1" pageScale="1" pageWidth="827" pageHeight="1169" math="0" shadow="0">
            <root>
                <mxCell id="0"/>
                <mxCell id="1" parent="0"/>
                <mxCell id="H73cLSaQ3Y7SqmAkLEeB-35" value="''interface''&#10;AbstractCarFactory" style="swimlane;fontStyle=0;align=center;verticalAlign=top;childLayout=stackLayout;horizontal=1;startSize=40;horizontalStack=0;resizeParent=1;resizeParentMax=0;resizeLast=0;collapsible=1;marginBottom=0;" parent="1" vertex="1">
                    <mxGeometry x="240" width="200" height="90" as="geometry"/>
                </mxCell>
                <mxCell id="H73cLSaQ3Y7SqmAkLEeB-37" value="" style="line;strokeWidth=1;fillColor=none;align=left;verticalAlign=middle;spacingTop=-1;spacingLeft=3;spacingRight=3;rotatable=0;labelPosition=right;points=[];portConstraint=eastwest;" parent="H73cLSaQ3Y7SqmAkLEeB-35" vertex="1">
                    <mxGeometry y="40" width="200" height="8" as="geometry"/>
                </mxCell>
                <mxCell id="H73cLSaQ3Y7SqmAkLEeB-38" value="+ createPremium(): Premium&#10;+ createSport(): Sport" style="text;strokeColor=none;fillColor=none;align=left;verticalAlign=top;spacingLeft=4;spacingRight=4;overflow=hidden;rotatable=0;points=[[0,0.5],[1,0.5]];portConstraint=eastwest;" parent="H73cLSaQ3Y7SqmAkLEeB-35" vertex="1">
                    <mxGeometry y="48" width="200" height="42" as="geometry"/>
                </mxCell>
                <mxCell id="H73cLSaQ3Y7SqmAkLEeB-70" style="edgeStyle=orthogonalEdgeStyle;rounded=0;orthogonalLoop=1;jettySize=auto;html=1;startArrow=none;startFill=0;endArrow=block;endFill=0;startSize=12;endSize=12;entryX=-0.019;entryY=-0.192;entryDx=0;entryDy=0;entryPerimeter=0;exitX=0;exitY=0.5;exitDx=0;exitDy=0;dashed=1;" parent="1" source="H73cLSaQ3Y7SqmAkLEeB-39" target="H73cLSaQ3Y7SqmAkLEeB-51" edge="1">
                    <mxGeometry relative="1" as="geometry">
                        <mxPoint x="20" y="460" as="targetPoint"/>
                        <Array as="points">
                            <mxPoint x="10" y="177"/>
                            <mxPoint x="10" y="449"/>
                        </Array>
                    </mxGeometry>
                </mxCell>
                <mxCell id="H73cLSaQ3Y7SqmAkLEeB-39" value="ToyotaFactory" style="swimlane;fontStyle=1;align=center;verticalAlign=top;childLayout=stackLayout;horizontal=1;startSize=26;horizontalStack=0;resizeParent=1;resizeParentMax=0;resizeLast=0;collapsible=1;marginBottom=0;" parent="1" vertex="1">
                    <mxGeometry x="40" y="160" width="160" height="34" as="geometry"/>
                </mxCell>
                <mxCell id="H73cLSaQ3Y7SqmAkLEeB-41" value="" style="line;strokeWidth=1;fillColor=none;align=left;verticalAlign=middle;spacingTop=-1;spacingLeft=3;spacingRight=3;rotatable=0;labelPosition=right;points=[];portConstraint=eastwest;" parent="H73cLSaQ3Y7SqmAkLEeB-39" vertex="1">
                    <mxGeometry y="26" width="160" height="8" as="geometry"/>
                </mxCell>
                <mxCell id="H73cLSaQ3Y7SqmAkLEeB-73" style="edgeStyle=orthogonalEdgeStyle;rounded=0;orthogonalLoop=1;jettySize=auto;html=1;dashed=1;startArrow=none;startFill=0;endArrow=block;endFill=0;startSize=12;endSize=12;entryX=0.994;entryY=0.5;entryDx=0;entryDy=0;entryPerimeter=0;" parent="1" source="H73cLSaQ3Y7SqmAkLEeB-43" target="H73cLSaQ3Y7SqmAkLEeB-56" edge="1">
                    <mxGeometry relative="1" as="geometry">
                        <mxPoint x="670" y="460" as="targetPoint"/>
                        <Array as="points">
                            <mxPoint x="670" y="177"/>
                            <mxPoint x="670" y="450"/>
                        </Array>
                    </mxGeometry>
                </mxCell>
                <mxCell id="H73cLSaQ3Y7SqmAkLEeB-43" value="LexusFactory" style="swimlane;fontStyle=1;align=center;verticalAlign=top;childLayout=stackLayout;horizontal=1;startSize=26;horizontalStack=0;resizeParent=1;resizeParentMax=0;resizeLast=0;collapsible=1;marginBottom=0;" parent="1" vertex="1">
                    <mxGeometry x="480" y="160" width="160" height="34" as="geometry"/>
                </mxCell>
                <mxCell id="H73cLSaQ3Y7SqmAkLEeB-44" value="" style="line;strokeWidth=1;fillColor=none;align=left;verticalAlign=middle;spacingTop=-1;spacingLeft=3;spacingRight=3;rotatable=0;labelPosition=right;points=[];portConstraint=eastwest;" parent="H73cLSaQ3Y7SqmAkLEeB-43" vertex="1">
                    <mxGeometry y="26" width="160" height="8" as="geometry"/>
                </mxCell>
                <mxCell id="H73cLSaQ3Y7SqmAkLEeB-45" value="ToyotaPremium" style="swimlane;fontStyle=1;align=center;verticalAlign=top;childLayout=stackLayout;horizontal=1;startSize=26;horizontalStack=0;resizeParent=1;resizeParentMax=0;resizeLast=0;collapsible=1;marginBottom=0;" parent="1" vertex="1">
                    <mxGeometry x="40" y="240" width="160" height="60" as="geometry"/>
                </mxCell>
                <mxCell id="H73cLSaQ3Y7SqmAkLEeB-47" value="" style="line;strokeWidth=1;fillColor=none;align=left;verticalAlign=middle;spacingTop=-1;spacingLeft=3;spacingRight=3;rotatable=0;labelPosition=right;points=[];portConstraint=eastwest;" parent="H73cLSaQ3Y7SqmAkLEeB-45" vertex="1">
                    <mxGeometry y="26" width="160" height="8" as="geometry"/>
                </mxCell>
                <mxCell id="H73cLSaQ3Y7SqmAkLEeB-48" value="+ wheelPos(): string = 'right'" style="text;strokeColor=none;fillColor=none;align=left;verticalAlign=top;spacingLeft=4;spacingRight=4;overflow=hidden;rotatable=0;points=[[0,0.5],[1,0.5]];portConstraint=eastwest;" parent="H73cLSaQ3Y7SqmAkLEeB-45" vertex="1">
                    <mxGeometry y="34" width="160" height="26" as="geometry"/>
                </mxCell>
                <mxCell id="H73cLSaQ3Y7SqmAkLEeB-49" value="ToyotaSport" style="swimlane;fontStyle=1;align=center;verticalAlign=top;childLayout=stackLayout;horizontal=1;startSize=26;horizontalStack=0;resizeParent=1;resizeParentMax=0;resizeLast=0;collapsible=1;marginBottom=0;" parent="1" vertex="1">
                    <mxGeometry x="40" y="420" width="160" height="60" as="geometry"/>
                </mxCell>
                <mxCell id="H73cLSaQ3Y7SqmAkLEeB-50" value="" style="line;strokeWidth=1;fillColor=none;align=left;verticalAlign=middle;spacingTop=-1;spacingLeft=3;spacingRight=3;rotatable=0;labelPosition=right;points=[];portConstraint=eastwest;" parent="H73cLSaQ3Y7SqmAkLEeB-49" vertex="1">
                    <mxGeometry y="26" width="160" height="8" as="geometry"/>
                </mxCell>
                <mxCell id="H73cLSaQ3Y7SqmAkLEeB-51" value="+ wheelPos(): string = 'right'" style="text;strokeColor=none;fillColor=none;align=left;verticalAlign=top;spacingLeft=4;spacingRight=4;overflow=hidden;rotatable=0;points=[[0,0.5],[1,0.5]];portConstraint=eastwest;" parent="H73cLSaQ3Y7SqmAkLEeB-49" vertex="1">
                    <mxGeometry y="34" width="160" height="26" as="geometry"/>
                </mxCell>
                <mxCell id="H73cLSaQ3Y7SqmAkLEeB-52" value="LexusPremium" style="swimlane;fontStyle=1;align=center;verticalAlign=top;childLayout=stackLayout;horizontal=1;startSize=26;horizontalStack=0;resizeParent=1;resizeParentMax=0;resizeLast=0;collapsible=1;marginBottom=0;" parent="1" vertex="1">
                    <mxGeometry x="480" y="240" width="160" height="60" as="geometry"/>
                </mxCell>
                <mxCell id="H73cLSaQ3Y7SqmAkLEeB-53" value="" style="line;strokeWidth=1;fillColor=none;align=left;verticalAlign=middle;spacingTop=-1;spacingLeft=3;spacingRight=3;rotatable=0;labelPosition=right;points=[];portConstraint=eastwest;" parent="H73cLSaQ3Y7SqmAkLEeB-52" vertex="1">
                    <mxGeometry y="26" width="160" height="8" as="geometry"/>
                </mxCell>
                <mxCell id="H73cLSaQ3Y7SqmAkLEeB-54" value="+ wheelPos(): string = 'left'" style="text;strokeColor=none;fillColor=none;align=left;verticalAlign=top;spacingLeft=4;spacingRight=4;overflow=hidden;rotatable=0;points=[[0,0.5],[1,0.5]];portConstraint=eastwest;" parent="H73cLSaQ3Y7SqmAkLEeB-52" vertex="1">
                    <mxGeometry y="34" width="160" height="26" as="geometry"/>
                </mxCell>
                <mxCell id="H73cLSaQ3Y7SqmAkLEeB-55" value="LexusSport" style="swimlane;fontStyle=1;align=center;verticalAlign=top;childLayout=stackLayout;horizontal=1;startSize=26;horizontalStack=0;resizeParent=1;resizeParentMax=0;resizeLast=0;collapsible=1;marginBottom=0;" parent="1" vertex="1">
                    <mxGeometry x="480" y="420" width="160" height="60" as="geometry"/>
                </mxCell>
                <mxCell id="H73cLSaQ3Y7SqmAkLEeB-56" value="" style="line;strokeWidth=1;fillColor=none;align=left;verticalAlign=middle;spacingTop=-1;spacingLeft=3;spacingRight=3;rotatable=0;labelPosition=right;points=[];portConstraint=eastwest;" parent="H73cLSaQ3Y7SqmAkLEeB-55" vertex="1">
                    <mxGeometry y="26" width="160" height="8" as="geometry"/>
                </mxCell>
                <mxCell id="H73cLSaQ3Y7SqmAkLEeB-57" value="+ wheelPos(): string = 'left'" style="text;strokeColor=none;fillColor=none;align=left;verticalAlign=top;spacingLeft=4;spacingRight=4;overflow=hidden;rotatable=0;points=[[0,0.5],[1,0.5]];portConstraint=eastwest;" parent="H73cLSaQ3Y7SqmAkLEeB-55" vertex="1">
                    <mxGeometry y="34" width="160" height="26" as="geometry"/>
                </mxCell>
                <mxCell id="H73cLSaQ3Y7SqmAkLEeB-58" value="Abstract&#10;Premium" style="swimlane;fontStyle=0;align=center;verticalAlign=top;childLayout=stackLayout;horizontal=1;startSize=40;horizontalStack=0;resizeParent=1;resizeParentMax=0;resizeLast=0;collapsible=1;marginBottom=0;" parent="1" vertex="1">
                    <mxGeometry x="260" y="340" width="160" height="90" as="geometry"/>
                </mxCell>
                <mxCell id="H73cLSaQ3Y7SqmAkLEeB-60" value="" style="line;strokeWidth=1;fillColor=none;align=left;verticalAlign=middle;spacingTop=-1;spacingLeft=3;spacingRight=3;rotatable=0;labelPosition=right;points=[];portConstraint=eastwest;" parent="H73cLSaQ3Y7SqmAkLEeB-58" vertex="1">
                    <mxGeometry y="40" width="160" height="8" as="geometry"/>
                </mxCell>
                <mxCell id="H73cLSaQ3Y7SqmAkLEeB-61" value="+ type(): string = 'premium'&#10;+ wheelPos(): string" style="text;strokeColor=none;fillColor=none;align=left;verticalAlign=top;spacingLeft=4;spacingRight=4;overflow=hidden;rotatable=0;points=[[0,0.5],[1,0.5]];portConstraint=eastwest;" parent="H73cLSaQ3Y7SqmAkLEeB-58" vertex="1">
                    <mxGeometry y="48" width="160" height="42" as="geometry"/>
                </mxCell>
                <mxCell id="H73cLSaQ3Y7SqmAkLEeB-62" value="Abstract&#10;Sport" style="swimlane;fontStyle=0;align=center;verticalAlign=top;childLayout=stackLayout;horizontal=1;startSize=40;horizontalStack=0;resizeParent=1;resizeParentMax=0;resizeLast=0;collapsible=1;marginBottom=0;" parent="1" vertex="1">
                    <mxGeometry x="270" y="520" width="160" height="90" as="geometry"/>
                </mxCell>
                <mxCell id="H73cLSaQ3Y7SqmAkLEeB-63" value="" style="line;strokeWidth=1;fillColor=none;align=left;verticalAlign=middle;spacingTop=-1;spacingLeft=3;spacingRight=3;rotatable=0;labelPosition=right;points=[];portConstraint=eastwest;" parent="H73cLSaQ3Y7SqmAkLEeB-62" vertex="1">
                    <mxGeometry y="40" width="160" height="8" as="geometry"/>
                </mxCell>
                <mxCell id="H73cLSaQ3Y7SqmAkLEeB-64" value="+ type(): string = 'sport'&#10;+ wheelPos(): string" style="text;strokeColor=none;fillColor=none;align=left;verticalAlign=top;spacingLeft=4;spacingRight=4;overflow=hidden;rotatable=0;points=[[0,0.5],[1,0.5]];portConstraint=eastwest;" parent="H73cLSaQ3Y7SqmAkLEeB-62" vertex="1">
                    <mxGeometry y="48" width="160" height="42" as="geometry"/>
                </mxCell>
                <mxCell id="H73cLSaQ3Y7SqmAkLEeB-65" value="" style="shape=partialRectangle;whiteSpace=wrap;html=1;bottom=1;right=1;left=1;top=0;fillColor=none;routingCenterX=-0.5;" parent="1" vertex="1">
                    <mxGeometry x="110" y="300" width="450" height="10" as="geometry"/>
                </mxCell>
                <mxCell id="H73cLSaQ3Y7SqmAkLEeB-66" value="" style="shape=partialRectangle;whiteSpace=wrap;html=1;bottom=1;right=1;left=1;top=0;fillColor=none;routingCenterX=-0.5;" parent="1" vertex="1">
                    <mxGeometry x="110" y="480" width="450" height="10" as="geometry"/>
                </mxCell>
                <mxCell id="H73cLSaQ3Y7SqmAkLEeB-67" value="" style="html=1;verticalAlign=bottom;startArrow=none;startFill=0;endArrow=block;startSize=8;entryX=0.5;entryY=0;entryDx=0;entryDy=0;endFill=0;endSize=12;" parent="1" target="H73cLSaQ3Y7SqmAkLEeB-58" edge="1">
                    <mxGeometry x="-0.7341" y="17" width="60" relative="1" as="geometry">
                        <mxPoint x="340" y="310" as="sourcePoint"/>
                        <mxPoint x="430" y="330" as="targetPoint"/>
                        <mxPoint as="offset"/>
                    </mxGeometry>
                </mxCell>
                <mxCell id="H73cLSaQ3Y7SqmAkLEeB-69" value="" style="html=1;verticalAlign=bottom;startArrow=none;startFill=0;endArrow=block;startSize=8;entryX=0.5;entryY=0;entryDx=0;entryDy=0;endFill=0;endSize=12;" parent="1" edge="1">
                    <mxGeometry x="-0.7341" y="17" width="60" relative="1" as="geometry">
                        <mxPoint x="350" y="490" as="sourcePoint"/>
                        <mxPoint x="350" y="521" as="targetPoint"/>
                        <mxPoint as="offset"/>
                    </mxGeometry>
                </mxCell>
                <mxCell id="H73cLSaQ3Y7SqmAkLEeB-72" value="" style="html=1;verticalAlign=bottom;startArrow=none;startFill=0;endArrow=block;startSize=8;entryX=0;entryY=0.5;entryDx=0;entryDy=0;endFill=0;endSize=12;dashed=1;" parent="1" target="H73cLSaQ3Y7SqmAkLEeB-45" edge="1">
                    <mxGeometry x="-0.7341" y="17" width="60" relative="1" as="geometry">
                        <mxPoint x="10" y="270" as="sourcePoint"/>
                        <mxPoint x="350" y="350" as="targetPoint"/>
                        <mxPoint as="offset"/>
                    </mxGeometry>
                </mxCell>
                <mxCell id="H73cLSaQ3Y7SqmAkLEeB-74" value="" style="html=1;verticalAlign=bottom;startArrow=none;startFill=0;endArrow=block;startSize=8;endFill=0;endSize=12;dashed=1;" parent="1" edge="1">
                    <mxGeometry x="-0.7341" y="17" width="60" relative="1" as="geometry">
                        <mxPoint x="670" y="270" as="sourcePoint"/>
                        <mxPoint x="640" y="270" as="targetPoint"/>
                        <mxPoint as="offset"/>
                    </mxGeometry>
                </mxCell>
                <mxCell id="H73cLSaQ3Y7SqmAkLEeB-77" value="" style="shape=partialRectangle;whiteSpace=wrap;html=1;bottom=1;right=1;left=1;top=0;fillColor=none;routingCenterX=-0.5;direction=west;dashed=1;" parent="1" vertex="1">
                    <mxGeometry x="115" y="130" width="450" height="30" as="geometry"/>
                </mxCell>
                <mxCell id="H73cLSaQ3Y7SqmAkLEeB-78" value="" style="html=1;verticalAlign=bottom;startArrow=none;startFill=0;endArrow=open;startSize=8;endFill=0;endSize=12;exitX=0.5;exitY=1;exitDx=0;exitDy=0;dashed=1;" parent="1" source="H73cLSaQ3Y7SqmAkLEeB-77" edge="1">
                    <mxGeometry x="-0.7341" y="17" width="60" relative="1" as="geometry">
                        <mxPoint x="350" y="320" as="sourcePoint"/>
                        <mxPoint x="341" y="90" as="targetPoint"/>
                        <mxPoint as="offset"/>
                    </mxGeometry>
                </mxCell>
            </root>
        </mxGraphModel>
    </diagram>
</mxfile>